<?xml version="1.0" encoding="UTF-8"?>
<svg version="1.1" xmlns="http://www.w3.org/2000/svg" xmlns:xlink="http://www.w3.org/1999/xlink">
<defs>

</defs>
<symbol id="i-arrow" viewBox="0 0 24 24" xmlns="http://www.w3.org/2000/svg"><path d="M12 16a1 1 0 01-.64-.23l-6-5a1.001 1.001 0 111.28-1.54L12 13.71l5.36-4.32a1 1 0 011.41.15 1 1 0 01-.14 1.46l-6 4.83A1 1 0 0112 16z"/></symbol>
<symbol id="i-behance" xmlns="http://www.w3.org/2000/svg" viewBox="0 0 511.958 511.958"><path d="M210.624 240.619c10.624-5.344 18.656-11.296 24.16-17.728 9.792-11.584 14.624-26.944 14.624-45.984 0-18.528-4.832-34.368-14.496-47.648-16.128-21.632-43.424-32.704-82.016-33.28H0v312.096h142.56c16.064 0 30.944-1.376 44.704-4.192 13.76-2.848 25.664-8.064 35.744-15.68 8.96-6.624 16.448-14.848 22.4-24.544 9.408-14.656 14.112-31.264 14.112-49.76 0-17.92-4.128-33.184-12.32-45.728-8.288-12.544-20.448-21.728-36.576-27.552zM63.072 150.187h68.864c15.136 0 27.616 1.632 37.408 4.864 11.328 4.704 16.992 14.272 16.992 28.864 0 13.088-4.32 22.24-12.864 27.392-8.608 5.152-19.776 7.744-33.472 7.744H63.072v-68.864zm108.896 198.24c-7.616 3.68-18.336 5.504-32.064 5.504H63.072v-83.232h77.888c13.568.096 24.128 1.888 31.68 5.248 13.44 6.08 20.128 17.216 20.128 33.504 0 19.2-6.912 32.128-20.8 38.976zM327.168 110.539h135.584v38.848H327.168zM509.856 263.851c-2.816-18.08-9.024-33.984-18.688-47.712-10.592-15.552-24.032-26.944-40.384-34.144-16.288-7.232-34.624-10.848-55.04-10.816-34.272 0-62.112 10.72-83.648 32-21.472 21.344-32.224 52.032-32.224 92.032 0 42.656 11.872 73.472 35.744 92.384 23.776 18.944 51.232 28.384 82.4 28.384 37.728 0 67.072-11.232 88.032-33.632 13.408-14.144 20.992-28.064 22.656-41.728H446.24c-3.616 6.752-7.808 12.032-12.608 15.872-8.704 7.04-20.032 10.56-33.92 10.56-13.216 0-24.416-2.912-33.76-8.704-15.424-9.28-23.488-25.536-24.512-48.672h170.464c.256-19.936-.384-35.264-2.048-45.824zm-166.88 5.984c2.24-15.008 7.68-26.912 16.32-35.712 8.64-8.768 20.864-13.184 36.512-13.216 14.432 0 26.496 4.128 36.32 12.416 9.696 8.352 15.168 20.48 16.288 36.512h-105.44z"/></symbol>
<symbol id="i-en" viewBox="0 0 24 18" fill="none" xmlns="http://www.w3.org/2000/svg"><path d="M23.63 1.667A2.654 2.654 0 0021.333.333H12v1.334h11.63zM0 13.667h24V15H0v-1.333zm12-5.334h12v1.334H12V8.333zm0-2.666h12V7H12V5.667zM0 11h24v1.333H0V11zm2.667 6.667h18.666c.985 0 1.835-.54 2.297-1.334H.37a2.654 2.654 0 002.297 1.334zM12 3h12v1.333H12V3z" fill="#B22334"/><path d="M.045 15.453a2.506 2.506 0 00.1.382c.06.172.132.339.223.495l.002.003h23.26l.001-.002A2.819 2.819 0 0024 15H0c0 .155.019.305.045.453zM0 12.333h24v1.334H0v-1.334zm0-2.666V11h24V9.667H0zM12 7h12v1.333H12V7zm0-2.667h12v1.334H12V4.333zM.37 1.667l-.002.003.002-.003zm-.285.696c.017-.068.04-.133.062-.198a2.522 2.522 0 00-.062.198zM12 3h12a2.48 2.48 0 00-.046-.453 2.403 2.403 0 00-.102-.384 2.806 2.806 0 00-.222-.496H12V3z" fill="#EEE"/><path d="M12 .333H2.667A2.667 2.667 0 000 3v6.667h12V.333z" fill="#3C3B6E"/><path d="M1.334 2.15l.412.3-.157.483L2 2.635l.412.298-.157-.483.412-.3h-.51L2 1.668l-.157.484h-.509zm1.333 1.334l.412.3-.157.483.411-.299.412.299-.157-.484L4 3.484h-.51L3.334 3l-.156.484h-.51zm2.667 0l.412.3-.157.483L6 3.968l.412.299-.157-.484.412-.299h-.51L6 3l-.157.484h-.509zm2.667 0l.412.3-.158.483.412-.299.412.299-.158-.484.412-.299h-.509L8.667 3l-.157.484H8zM2.667 6.151l.412.299-.157.483.411-.298.412.298-.157-.483.412-.3h-.51l-.157-.483-.156.484h-.51zm2.667 0l.412.299-.157.483L6 6.635l.412.298-.157-.483.412-.3h-.51L6 5.668l-.157.484h-.509zm2.667 0l.412.299-.158.483.412-.298.412.298-.158-.483.412-.3h-.509l-.157-.483-.157.484H8zm-4-4l.412.299-.158.483.412-.298.412.298-.158-.483.412-.3h-.509l-.157-.483-.157.484H4zm2.666 0l.412.299-.157.483.411-.298.412.298-.157-.483.412-.3h-.51l-.157-.483-.156.484h-.51zm2.667 0l.412.299-.157.483.411-.298.412.298-.157-.483.412-.3h-.51L10 1.668l-.157.484h-.509zm-8 2.666l.412.3-.157.483L2 5.301l.412.299-.157-.483.412-.3h-.51L2 4.333l-.157.484h-.509zm2.921.783l.412-.299.412.299-.158-.483.412-.3h-.509l-.157-.484-.157.484H4l.413.3-.158.483zm2.412-.783l.412.3-.157.483.411-.299.412.299-.157-.483.412-.3h-.51l-.157-.484-.156.484h-.51zm2.667 0l.412.3-.157.483.411-.299.412.299-.157-.483.412-.3h-.51L10 4.333l-.157.484h-.509zm-8 2.667l.412.3-.157.483L2 7.968l.412.299-.157-.484.412-.299h-.51L2 7l-.157.484h-.509zm2.921.783l.412-.299.412.299-.158-.484.412-.299h-.509L4.667 7l-.157.484H4l.413.3-.158.483zm2.412-.783l.412.3-.157.483.411-.299.412.299-.157-.484L8 7.484h-.51L7.334 7l-.156.484h-.51zm2.667 0l.412.3-.157.483.411-.299.412.299-.157-.484.412-.299h-.51L10 7l-.157.484h-.509z" fill="#fff"/></symbol>
<symbol id="i-github" xmlns="http://www.w3.org/2000/svg" viewBox="0 0 24 24"><path d="M12 0C5.374 0 0 5.373 0 12c0 5.302 3.438 9.8 8.207 11.387.599.111.793-.261.793-.577v-2.234c-3.338.726-4.033-1.416-4.033-1.416-.546-1.387-1.333-1.756-1.333-1.756-1.089-.745.083-.729.083-.729 1.205.084 1.839 1.237 1.839 1.237 1.07 1.834 2.807 1.304 3.492.997.107-.775.418-1.305.762-1.604-2.665-.305-5.467-1.334-5.467-5.931 0-1.311.469-2.381 1.236-3.221-.124-.303-.535-1.524.117-3.176 0 0 1.008-.322 3.301 1.23A11.509 11.509 0 0112 5.803c1.02.005 2.047.138 3.006.404 2.291-1.552 3.297-1.23 3.297-1.23.653 1.653.242 2.874.118 3.176.77.84 1.235 1.911 1.235 3.221 0 4.609-2.807 5.624-5.479 5.921.43.372.823 1.102.823 2.222v3.293c0 .319.192.694.801.576C20.566 21.797 24 17.3 24 12c0-6.627-5.373-12-12-12z"/></symbol>
<symbol id="i-instagram" viewBox="0 0 511 511.9" xmlns="http://www.w3.org/2000/svg"><path d="M510.95 150.5c-1.2-27.2-5.598-45.898-11.9-62.102-6.5-17.199-16.5-32.597-29.6-45.398-12.802-13-28.302-23.102-45.302-29.5-16.296-6.3-34.898-10.7-62.097-11.898C334.648.3 325.949 0 256.449 0s-78.199.3-105.5 1.5c-27.199 1.2-45.898 5.602-62.097 11.898-17.204 6.5-32.602 16.5-45.403 29.602-13 12.8-23.097 28.3-29.5 45.3-6.3 16.302-10.699 34.9-11.898 62.098C.75 177.801.449 186.5.449 256s.301 78.2 1.5 105.5c1.2 27.2 5.602 45.898 11.903 62.102 6.5 17.199 16.597 32.597 29.597 45.398 12.801 13 28.301 23.102 45.301 29.5 16.3 6.3 34.898 10.7 62.102 11.898 27.296 1.204 36 1.5 105.5 1.5s78.199-.296 105.5-1.5c27.199-1.199 45.898-5.597 62.097-11.898a130.934 130.934 0 0074.903-74.898c6.296-16.301 10.699-34.903 11.898-62.102 1.2-27.3 1.5-36 1.5-105.5s-.102-78.2-1.3-105.5zm-46.098 209c-1.102 25-5.301 38.5-8.801 47.5-8.602 22.3-26.301 40-48.602 48.602-9 3.5-22.597 7.699-47.5 8.796-27 1.204-35.097 1.5-103.398 1.5s-76.5-.296-103.403-1.5c-25-1.097-38.5-5.296-47.5-8.796C94.551 451.5 84.45 445 76.25 436.5c-8.5-8.3-15-18.3-19.102-29.398-3.5-9-7.699-22.602-8.796-47.5-1.204-27-1.5-35.102-1.5-103.403s.296-76.5 1.5-103.398c1.097-25 5.296-38.5 8.796-47.5C61.25 94.199 67.75 84.1 76.352 75.898c8.296-8.5 18.296-15 29.398-19.097 9-3.5 22.602-7.7 47.5-8.801 27-1.2 35.102-1.5 103.398-1.5 68.403 0 76.5.3 103.403 1.5 25 1.102 38.5 5.3 47.5 8.8 11.097 4.098 21.199 10.598 29.398 19.098 8.5 8.301 15 18.301 19.102 29.403 3.5 9 7.699 22.597 8.8 47.5 1.2 27 1.5 35.097 1.5 103.398s-.3 76.301-1.5 103.301zm0 0"/><path d="M256.45 124.5c-72.598 0-131.5 58.898-131.5 131.5s58.902 131.5 131.5 131.5c72.6 0 131.5-58.898 131.5-131.5s-58.9-131.5-131.5-131.5zm0 216.8c-47.098 0-85.302-38.198-85.302-85.3s38.204-85.3 85.301-85.3c47.102 0 85.301 38.198 85.301 85.3s-38.2 85.3-85.3 85.3zm0 0M423.852 119.3c0 16.954-13.747 30.7-30.704 30.7-16.953 0-30.699-13.746-30.699-30.7 0-16.956 13.746-30.698 30.7-30.698 16.956 0 30.703 13.742 30.703 30.699zm0 0"/></symbol>
<symbol id="i-linkedin" viewBox="0 0 24 24" xmlns="http://www.w3.org/2000/svg"><path d="M23.994 24v-.001H24v-8.802c0-4.306-.927-7.623-5.961-7.623-2.42 0-4.044 1.328-4.707 2.587h-.07V7.976H8.489v16.023h4.97v-7.934c0-2.089.396-4.109 2.983-4.109 2.549 0 2.587 2.384 2.587 4.243V24zM.396 7.977h4.976V24H.396zM2.882 0C1.291 0 0 1.291 0 2.882s1.291 2.909 2.882 2.909 2.882-1.318 2.882-2.909A2.884 2.884 0 002.882 0z"/></symbol>
<symbol id="i-ru" viewBox="0 0 24 18" fill="none" xmlns="http://www.w3.org/2000/svg"><path d="M24 15a2.667 2.667 0 01-2.667 2.667H2.667A2.667 2.667 0 010 15v-2.667h24V15z" fill="#CE2028"/><path d="M0 5.667h24v6.666H0V5.667z" fill="#22408C"/><path d="M21.333.333H2.667A2.667 2.667 0 000 3v2.667h24V3A2.667 2.667 0 0021.333.333z" fill="#EEE"/></symbol>
<symbol id="i-stackoverflow" xmlns="http://www.w3.org/2000/svg" stroke-width="0" viewBox="0 0 24 24"><path d="M15 21H5v-2h10v2zm6-11.665L19.379 0l-1.993.346 1.62 9.335L21 9.335zm-5.964 6.937l-9.746-.975-.186 2.016 9.755.879.177-1.92zm.538-2.587l-9.276-2.608-.526 1.954 9.306 2.5.496-1.846zm1.204-2.413L8.481 6.408 7.452 8.151l8.298 4.865 1.028-1.744zm1.866-1.467l-5.339-7.829-1.672 1.14 5.339 7.829 1.672-1.14zM16 14v8H4v-8H2v10h16V14h-2z"/></symbol>
<symbol id="i-telegram" xmlns="http://www.w3.org/2000/svg" fill-rule="evenodd" clip-rule="evenodd" stroke-linejoin="round" stroke-miterlimit="1.414" viewBox="0 0 24 24"><path d="M18.384 22.779a1.19 1.19 0 001.107.145 1.16 1.16 0 00.724-.84C21.084 18 23.192 7.663 23.983 3.948a.78.78 0 00-.26-.758.8.8 0 00-.797-.14C18.733 4.602 5.82 9.447.542 11.4a.827.827 0 00-.542.799c.012.354.25.661.593.764 2.367.708 5.474 1.693 5.474 1.693s1.452 4.385 2.209 6.615c.095.28.314.5.603.576a.866.866 0 00.811-.207l3.096-2.923s3.572 2.619 5.598 4.062zm-11.01-8.677l1.679 5.538.373-3.507 10.185-9.186a.277.277 0 00.033-.377.284.284 0 00-.376-.064L7.374 14.102z"/></symbol>
<symbol id="i-twitch" viewBox="0 0 24 24" xmlns="http://www.w3.org/2000/svg"><path d="M.975 4.175v16.694h5.749V24h3.139l3.134-3.132h4.705l6.274-6.258V0H2.542zm3.658-2.09h17.252v11.479l-3.66 3.652h-5.751L9.34 20.343v-3.127H4.633z"/><path d="M10.385 6.262h2.09v6.26h-2.09zM16.133 6.262h2.091v6.26h-2.091z"/></symbol>
<symbol id="i-vk" viewBox="0 0 24 24" xmlns="http://www.w3.org/2000/svg"><path d="M19.915 13.028c-.388-.49-.277-.708 0-1.146.005-.005 3.208-4.431 3.538-5.932l.002-.001c.164-.547 0-.949-.793-.949h-2.624c-.668 0-.976.345-1.141.731 0 0-1.336 3.198-3.226 5.271-.61.599-.892.791-1.225.791-.164 0-.419-.192-.419-.739V5.949c0-.656-.187-.949-.74-.949H9.161c-.419 0-.668.306-.668.591 0 .622.945.765 1.043 2.515v3.797c0 .832-.151.985-.486.985-.892 0-3.057-3.211-4.34-6.886-.259-.713-.512-1.001-1.185-1.001H.9c-.749 0-.9.345-.9.731 0 .682.892 4.073 4.148 8.553C6.318 17.343 9.374 19 12.154 19c1.671 0 1.875-.368 1.875-1.001 0-2.922-.151-3.198.686-3.198.388 0 1.056.192 2.616 1.667C19.114 18.217 19.407 19 20.405 19h2.624c.748 0 1.127-.368.909-1.094-.499-1.527-3.871-4.668-4.023-4.878z"/></symbol>
</svg>