<svg width="16" height="16" viewBox="0 0 16 16" fill="none" xmlns="http://www.w3.org/2000/svg">
<g clip-path="url(#clip0_5:3)">
<rect width="16" height="16" rx="4" fill="white"/>
<path d="M11.259 11.747C11.259 12.1997 11.189 12.524 11.049 12.72C10.909 12.916 10.6523 13.014 10.279 13.014H6.114C5.85267 13.014 5.645 12.9323 5.491 12.769C5.34167 12.6057 5.267 12.3817 5.267 12.097V3.529L5.351 3.438H10.986C11.0093 3.55 11.0233 3.65733 11.028 3.76C11.0327 3.858 11.035 3.949 11.035 4.033C11.035 4.117 11.0257 4.222 11.007 4.348C10.9883 4.46933 10.958 4.586 10.916 4.698H7.598C7.49533 4.698 7.36233 4.698 7.199 4.698C7.04033 4.698 6.87933 4.69567 6.716 4.691C6.716 4.87767 6.71833 5.03167 6.723 5.153C6.72767 5.27433 6.73 5.42833 6.73 5.615V7.561C6.89333 7.561 7.052 7.561 7.206 7.561C7.36467 7.55633 7.49533 7.554 7.598 7.554H10.23C10.2533 7.652 10.272 7.75933 10.286 7.876C10.3 7.99267 10.307 8.09067 10.307 8.17C10.307 8.254 10.3 8.35433 10.286 8.471C10.272 8.583 10.2533 8.69033 10.23 8.793H7.598C7.49533 8.793 7.36467 8.793 7.206 8.793C7.052 8.78833 6.89333 8.78367 6.73 8.779V11.068C6.73 11.194 6.72767 11.3107 6.723 11.418C6.71833 11.5253 6.716 11.6443 6.716 11.775C6.85133 11.7657 6.99367 11.7587 7.143 11.754C7.29233 11.7493 7.458 11.747 7.64 11.747H11.259Z" fill="black"/>
</g>
<defs>
<clipPath id="clip0_5:3">
<rect width="16" height="16" fill="white"/>
</clipPath>
</defs>
</svg>
