<svg width="77" height="34" viewBox="0 0 77 34" fill="none" xmlns="http://www.w3.org/2000/svg">
<g filter="url(#filter0_d_14_364)">
<rect x="7" y="4" width="63" height="20" rx="4" fill="white"/>
</g>
<path d="M14.26 9.529L14.351 9.438H15.716V10.663C15.716 10.859 15.7183 11.02 15.723 11.146C15.7277 11.2673 15.73 11.4237 15.73 11.615V17.068C15.73 17.194 15.7277 17.3107 15.723 17.418C15.7183 17.5207 15.716 17.6397 15.716 17.775V19.014H15.114C14.8527 19.014 14.645 18.9323 14.491 18.769C14.337 18.6057 14.26 18.3793 14.26 18.09V9.529ZM19.23 13.554C19.2533 13.6473 19.2697 13.7547 19.279 13.876C19.293 13.9927 19.3 14.0907 19.3 14.17C19.3 14.254 19.293 14.3543 19.279 14.471C19.2697 14.583 19.2533 14.6903 19.23 14.793H16.598C16.4907 14.793 16.3553 14.793 16.192 14.793C16.0287 14.7883 15.8583 14.786 15.681 14.786C15.5083 14.7813 15.352 14.7767 15.212 14.772V13.568C15.352 13.568 15.5083 13.568 15.681 13.568C15.8583 13.5633 16.0287 13.561 16.192 13.561C16.3553 13.5563 16.4907 13.554 16.598 13.554H19.23ZM19.986 9.438C20.0093 9.55 20.0233 9.65733 20.028 9.76C20.0327 9.858 20.035 9.949 20.035 10.033C20.035 10.117 20.0257 10.222 20.007 10.348C19.993 10.4693 19.9627 10.586 19.916 10.698H16.598C16.4907 10.698 16.3553 10.698 16.192 10.698C16.0287 10.698 15.8583 10.698 15.681 10.698C15.5083 10.6933 15.352 10.6887 15.212 10.684V9.438H19.986ZM20.259 17.747C20.259 18.1997 20.189 18.524 20.049 18.72C19.9137 18.916 19.6547 19.014 19.272 19.014H15.212V17.81C15.436 17.796 15.6577 17.782 15.877 17.768C16.0963 17.754 16.3507 17.747 16.64 17.747H20.259Z" fill="black"/>
<line x1="27.0147" y1="4" x2="27.0147" y2="23.7647" stroke="#F9F9F9" stroke-width="0.5"/>
<path d="M32.91 10.4H37.14V11.1H33.69V13.12H36.33V13.82H33.69V16.3H37.26V17H32.91V10.4Z" fill="#1F1F1F"/>
<path d="M41.104 12.13V12.81H40.814C40.5407 12.81 40.2874 12.8666 40.054 12.98C39.8207 13.0933 39.634 13.2566 39.494 13.47C39.354 13.6833 39.284 13.94 39.284 14.24V17H38.514V12.13H39.234V12.82C39.4074 12.5866 39.6274 12.4066 39.894 12.28C40.1674 12.1533 40.4507 12.09 40.744 12.09C40.8507 12.09 40.9707 12.1033 41.104 12.13Z" fill="#1F1F1F"/>
<path d="M44.7271 12.13V12.81H44.4371C44.1637 12.81 43.9104 12.8666 43.6771 12.98C43.4437 13.0933 43.2571 13.2566 43.1171 13.47C42.9771 13.6833 42.9071 13.94 42.9071 14.24V17H42.1371V12.13H42.8571V12.82C43.0304 12.5866 43.2504 12.4066 43.5171 12.28C43.7904 12.1533 44.0737 12.09 44.3671 12.09C44.4737 12.09 44.5937 12.1033 44.7271 12.13Z" fill="#1F1F1F"/>
<path d="M45.7601 12.13H46.5301V17H45.7601V12.13ZM46.1501 10.83C45.9901 10.83 45.8535 10.7766 45.7401 10.67C45.6268 10.5633 45.5701 10.43 45.5701 10.27C45.5701 10.1166 45.6268 9.98663 45.7401 9.87996C45.8535 9.76663 45.9901 9.70996 46.1501 9.70996C46.3035 9.70996 46.4368 9.76663 46.5501 9.87996C46.6635 9.98663 46.7201 10.1166 46.7201 10.27C46.7201 10.43 46.6635 10.5633 46.5501 10.67C46.4435 10.7766 46.3101 10.83 46.1501 10.83Z" fill="#1F1F1F"/>
<path d="M50.4111 17.1C49.9444 17.1 49.5177 16.9866 49.1311 16.76C48.7444 16.5333 48.4377 16.2266 48.2111 15.84C47.9844 15.4466 47.8711 15.02 47.8711 14.56C47.8711 14.0933 47.9844 13.6666 48.2111 13.28C48.4377 12.8866 48.7444 12.58 49.1311 12.36C49.5244 12.1333 49.9544 12.02 50.4211 12.02C50.8877 12.02 51.3144 12.1333 51.7011 12.36C52.0944 12.5866 52.4044 12.8933 52.6311 13.28C52.8577 13.6666 52.9711 14.0933 52.9711 14.56C52.9711 15.02 52.8577 15.4466 52.6311 15.84C52.4044 16.2266 52.0944 16.5333 51.7011 16.76C51.3077 16.9866 50.8777 17.1 50.4111 17.1ZM50.4111 16.39C50.7377 16.39 51.0344 16.31 51.3011 16.15C51.5744 15.99 51.7877 15.7733 51.9411 15.5C52.1011 15.22 52.1811 14.91 52.1811 14.57C52.1811 14.2233 52.1044 13.91 51.9511 13.63C51.7977 13.35 51.5844 13.13 51.3111 12.97C51.0444 12.81 50.7477 12.73 50.4211 12.73C50.0877 12.73 49.7877 12.81 49.5211 12.97C49.2544 13.13 49.0444 13.35 48.8911 13.63C48.7377 13.91 48.6611 14.2233 48.6611 14.57C48.6611 14.91 48.7377 15.22 48.8911 15.5C49.0444 15.7733 49.2544 15.99 49.5211 16.15C49.7877 16.31 50.0844 16.39 50.4111 16.39Z" fill="#1F1F1F"/>
<path d="M56.2846 17.11C55.9046 17.11 55.5613 17.0266 55.2546 16.86C54.9479 16.6866 54.7046 16.4466 54.5246 16.14C54.3512 15.8266 54.2646 15.4666 54.2646 15.06V12.13H55.0246V15.11C55.0246 15.5033 55.1446 15.8166 55.3846 16.05C55.6246 16.2833 55.9246 16.4 56.2846 16.4C56.6379 16.4 56.9312 16.2833 57.1646 16.05C57.4046 15.81 57.5246 15.4966 57.5246 15.11V12.13H58.2946V15.06C58.2946 15.4666 58.2046 15.8266 58.0246 16.14C57.8512 16.4466 57.6112 16.6866 57.3046 16.86C56.9979 17.0266 56.6579 17.11 56.2846 17.11Z" fill="#1F1F1F"/>
<path d="M62.5103 12.13V12.81H62.2203C61.947 12.81 61.6936 12.8666 61.4603 12.98C61.227 13.0933 61.0403 13.2566 60.9003 13.47C60.7603 13.6833 60.6903 13.94 60.6903 14.24V17H59.9203V12.13H60.6403V12.82C60.8136 12.5866 61.0336 12.4066 61.3003 12.28C61.5736 12.1533 61.857 12.09 62.1503 12.09C62.257 12.09 62.377 12.1033 62.5103 12.13Z" fill="#1F1F1F"/>
<defs>
<filter id="filter0_d_14_364" x="0" y="0" width="77" height="34" filterUnits="userSpaceOnUse" color-interpolation-filters="sRGB">
<feFlood flood-opacity="0" result="BackgroundImageFix"/>
<feColorMatrix in="SourceAlpha" type="matrix" values="0 0 0 0 0 0 0 0 0 0 0 0 0 0 0 0 0 0 127 0" result="hardAlpha"/>
<feOffset dy="3"/>
<feGaussianBlur stdDeviation="3.5"/>
<feComposite in2="hardAlpha" operator="out"/>
<feColorMatrix type="matrix" values="0 0 0 0 0 0 0 0 0 0 0 0 0 0 0 0 0 0 0.1 0"/>
<feBlend mode="normal" in2="BackgroundImageFix" result="effect1_dropShadow_14_364"/>
<feBlend mode="normal" in="SourceGraphic" in2="effect1_dropShadow_14_364" result="shape"/>
</filter>
</defs>
</svg>
